<?xml version="1.0" encoding="UTF-8" standalone="no"?>
<!-- Created with Inkscape (http://www.inkscape.org/) -->

<svg
   version="1.1"
   id="svg1"
   width="2668"
   height="2668"
   viewBox="0 0 2668 2668"
   sodipodi:docname="EPS.eps"
   xmlns:inkscape="http://www.inkscape.org/namespaces/inkscape"
   xmlns:sodipodi="http://sodipodi.sourceforge.net/DTD/sodipodi-0.dtd"
   xmlns="http://www.w3.org/2000/svg"
   xmlns:svg="http://www.w3.org/2000/svg">
  <defs
     id="defs1" />
  <sodipodi:namedview
     id="namedview1"
     pagecolor="#ffffff"
     bordercolor="#000000"
     borderopacity="0.25"
     inkscape:showpageshadow="2"
     inkscape:pageopacity="0.0"
     inkscape:pagecheckerboard="0"
     inkscape:deskcolor="#d1d1d1">
    <inkscape:page
       x="0"
       y="0"
       inkscape:label="1"
       id="page1"
       width="2668"
       height="2668"
       margin="0"
       bleed="0" />
  </sodipodi:namedview>
  <g
     id="g1"
     inkscape:groupmode="layer"
     inkscape:label="1">
    <g
       id="group-R5">
      <path
         id="path2"
         d="M 20010,0 H 0 V 20010 H 20010 V 0"
         style="fill:#ede8e3;fill-opacity:1;fill-rule:nonzero;stroke:none"
         transform="matrix(0.13333333,0,0,-0.13333333,0,2668)" />
      <path
         id="path3"
         d="m 5354.97,6210.2 c -31.61,-116.8 -79.98,-220.7 -145.11,-311.7 -65.01,-91 -145.95,-163.7 -242.69,-218.3 -96.75,-54.6 -211.09,-81.9 -343.27,-81.9 -130.27,0 -244.13,27.3 -341.83,81.9 -97.7,54.6 -178.64,126.8 -242.69,216.8 -64.18,90.1 -112.07,193.5 -143.68,310.2 -31.61,116.9 -47.41,237.6 -47.41,362 0,124.5 15.8,245.7 47.41,363.4 31.61,117.8 79.5,222.2 143.68,313.2 64.05,90.9 144.99,163.7 242.69,218.2 97.7,54.6 211.56,81.9 341.83,81.9 132.18,0 246.52,-27.3 343.27,-81.9 96.74,-54.5 177.68,-126.9 242.69,-216.8 65.13,-90 113.5,-193.9 145.11,-311.6 31.61,-117.9 47.41,-239 47.41,-363.4 0,-124.5 -15.8,-245.2 -47.41,-362 z m 280.05,745.4 c -44.06,123.5 -111.11,232.2 -201.03,326.1 -90.03,93.7 -202.1,168.9 -336.08,225.4 -134.1,56.6 -292.14,84.8 -474.01,84.8 -180.07,0 -337.52,-28.2 -472.57,-84.8 -134.94,-56.5 -247.01,-131.7 -336.09,-225.4 -89.07,-93.9 -155.52,-202.6 -199.59,-326.1 -44.06,-123.5 -66.09,-252.3 -66.09,-386.4 0,-132.1 22.03,-259.5 66.09,-382 44.07,-122.6 110.52,-230.8 199.59,-324.7 89.08,-93.7 201.15,-168.9 336.09,-225.4 135.05,-56.5 292.5,-84.8 472.57,-84.8 181.87,0 339.91,28.3 474.01,84.8 133.98,56.5 246.05,131.7 336.08,225.4 89.92,93.9 156.97,202.1 201.03,324.7 44.06,122.5 66.09,249.9 66.09,382 0,134.1 -22.03,262.9 -66.09,386.4"
         style="fill:#464648;fill-opacity:1;fill-rule:nonzero;stroke:none"
         transform="matrix(0.13333333,0,0,-0.13333333,0,2668)" />
      <path
         id="path4"
         d="m 8185.99,6283.4 c -17.25,60.3 -49.93,116.4 -97.71,168.1 -47.89,51.7 -113.02,102.8 -195.39,153.6 -82.38,50.8 -188.58,106.8 -318.85,168.1 -49.8,23 -101.05,47.4 -153.61,73.3 -52.68,25.8 -101.05,53.5 -145.11,83.3 -44.06,29.6 -80.46,62.6 -109.2,99 -28.73,36.4 -43.1,77.6 -43.1,123.6 0,72.8 12.93,134.4 38.8,185.2 25.86,50.8 59.38,91.5 100.57,122.1 41.19,30.7 88.6,52.7 142.24,66.1 53.52,13.4 107.16,20.1 160.79,20.1 80.46,0 161.88,-11.9 244.25,-35.9 82.26,-23.9 155.05,-63.7 218.27,-119.2 l 37.36,31.6 c -65.14,57.5 -142.24,100.1 -231.2,127.9 -89.08,27.6 -178.64,41.6 -268.68,41.6 -70.87,0 -142.59,-10 -215.39,-30.2 -72.8,-20.1 -137.93,-49.3 -195.4,-87.6 -57.35,-38.3 -104.4,-85.7 -140.68,-142.2 -36.4,-56.5 -54.6,-121.1 -54.6,-193.9 0,-84.3 14.37,-156.1 43.1,-215.4 28.74,-59.4 68.97,-112 120.57,-158 51.73,-46 113.51,-88.6 185.34,-127.9 71.84,-39.3 150.86,-81.8 236.95,-127.7 155.17,-80.5 271.91,-153.8 350.45,-219.9 78.54,-66.1 117.81,-138.3 117.81,-216.8 0,-82.4 -12.93,-153.7 -38.79,-214.1 -25.86,-60.2 -60.34,-109.5 -103.45,-147.8 -42.98,-38.4 -93.74,-66.6 -152.17,-84.8 -58.43,-18.2 -121.17,-27.3 -188.22,-27.3 -47.89,0 -100.09,4.3 -156.48,12.9 -56.52,8.6 -112.55,22.5 -168.11,41.7 -55.55,19.1 -108.23,43.6 -157.92,73.3 -49.81,29.7 -91.95,65.6 -126.43,107.7 l -43.11,-25.8 c 36.4,-42.2 79.98,-79.5 130.75,-112.1 50.65,-32.6 105.24,-59.4 163.67,-80.5 58.43,-21 118.29,-36.8 179.59,-47.4 61.31,-10.4 120.69,-15.8 178.04,-15.8 84.29,0 166.67,11.5 247.13,34.5 80.33,23 153.13,56.5 218.26,100.6 65.13,44 117.34,98 156.61,162.2 39.15,64.2 58.79,138.4 58.79,222.7 0,80.5 -8.5,150.7 -25.74,211.1"
         style="fill:#464648;fill-opacity:1;fill-rule:nonzero;stroke:none"
         transform="matrix(0.13333333,0,0,-0.13333333,0,2668)" />
      <path
         id="path5"
         d="m 9831.91,5624.2 v 1962 H 9533.19 V 5575.3 h 1269.61 v 48.9 h -970.89"
         style="fill:#464648;fill-opacity:1;fill-rule:nonzero;stroke:none"
         transform="matrix(0.13333333,0,0,-0.13333333,0,2668)" />
      <path
         id="path6"
         d="m 12423,5624.2 v 1034.1 h 554.3 v 48.8 H 12423 v 830.2 h 847.3 v 48.9 h -1146 V 5575.3 h 1269.6 v 48.9 H 12423"
         style="fill:#464648;fill-opacity:1;fill-rule:nonzero;stroke:none"
         transform="matrix(0.13333333,0,0,-0.13333333,0,2668)" />
      <path
         id="path7"
         d="m 14999.6,6276.2 318.9,950.9 318.9,-950.9 z m 468.2,1310 h -80.4 l -672.2,-2010.9 h 54.6 l 215.4,654.9 h 666.5 l 218.3,-654.9 h 270 l -672.2,2010.9"
         style="fill:#464648;fill-opacity:1;fill-rule:nonzero;stroke:none"
         transform="matrix(0.13333333,0,0,-0.13333333,0,2668)" />
      <path
         id="path8"
         d="M 9175.25,4792 H 3541.1 v -56.4 h 5634.15 v 56.4"
         style="fill:#464648;fill-opacity:1;fill-rule:nonzero;stroke:none"
         transform="matrix(0.13333333,0,0,-0.13333333,0,2668)" />
      <path
         id="path9"
         d="m 10455.5,4792 v -56.4 h 5663.1 v 56.4 h -5663.1"
         style="fill:#464648;fill-opacity:1;fill-rule:nonzero;stroke:none"
         transform="matrix(0.13333333,0,0,-0.13333333,0,2668)" />
      <path
         id="path10"
         d="m 9805,4222.7 c 4.64,325.4 -207.98,544.2 -533.4,548.8 325.42,-4.6 544.18,208 548.81,533.4 -4.63,-325.4 207.99,-544.1 533.39,-548.8 -325.4,4.7 -544.16,-208 -548.8,-533.4"
         style="fill:#464648;fill-opacity:1;fill-rule:nonzero;stroke:none"
         transform="matrix(0.13333333,0,0,-0.13333333,0,2668)" />
      <path
         id="path11"
         d="m 11861.6,11877.3 c -32.1,-33.4 -43,-81.4 -28.3,-125.4 l 16.4,-49.2 c 3.5,-10.6 2.4,-22.4 -3.2,-32.2 l -32.8,-57.4 c -22.3,-39 -21.8,-87.1 1.3,-125.5 8.9,-14.9 6.9,-34.3 -4.8,-47.1 l -60.7,-66.2 c -31.1,-34 -40.9,-81.9 -25.6,-124.9 20.3,-56.7 45.4,-160.8 -15.5,-219.7 -62.7,-60.6 -269.7,-121.9 -950.9,148.6 -21.6,8.8 -46.2,-1.9 -54.8,-23.6 -8.6,-21.8 1.9,-46.3 23.6,-54.9 88.4,-35.1 171.1,-65.7 248.6,-91.9 -156.9,-225.7 -947.2,-1437.9 41.4,-1601.6 0,0 -1078.19,17 -844.8,1238 -189.33,56.6 -328.21,236.5 -328.21,449.1 0,15.6 1.43,32.1 4.07,49.7 16.16,98.8 83.57,224.6 123.2,292.3 30.14,49.3 68.44,111.7 95.14,155.1 15,24.5 26.3,42.8 30,49 40.7,75.9 73.5,144.6 89.8,179.6 l 18.5,38.2 -18.5,13.4 c -124.1,95.2 -305.22,271.9 -305.22,493.5 0,49.7 9.1,101.7 30.05,155.6 17.61,45.1 58.55,77.9 106.97,81.3 105,7.1 221.9,-65.7 350.6,-209.1 0,0 90.1,879.9 1079.3,1003 l 179.1,-443.5 c 1.4,-4.2 2.2,-8.5 2.2,-12.8 V 12628 c 0,-23.8 6.8,-47.1 19.7,-67.2 l 332.1,-516.2 c 10.1,-15.6 8.1,-35.6 -4.7,-48.9 z m 174.9,59.7 c 40.1,41.7 46.3,104.7 15,153.3 l -332.2,516.3 c -4.2,6.3 -6.3,13.7 -6.3,21.4 v 310.7 c 0,14.4 -2.4,28.6 -7.3,42.1 l -189.7,469.5 c 109.5,74.4 147.4,161.6 154.5,237.7 7.9,85.2 -27.9,168.3 -88.1,229.5 l -35.8,41.5 -8.2,9.4 -16.3,18.5 -0.8,1.2 c -18.1,25.3 -28.9,56.4 -28.9,90 0,85.7 69.8,155.6 155.7,155.6 54.7,0 102.7,-28 130.3,-70.4 -1.7,11 -4.1,23.2 -7,36.3 -27.9,122.8 -136.1,215 -262.1,216.1 -216.3,2 -302.2,-247.3 -211.8,-396.7 157.9,-234.2 146.3,-339.6 123.1,-383 -95.4,168.8 -198.6,295.7 -198.6,295.7 0,0 -1327.71,1028.3 -2552.67,-318 0,0 -12.21,-303.4 -120.44,-639.6 29.93,24.6 993.63,810.7 2688.51,897.7 15.9,-22.7 32.9,-50.2 50.2,-80.5 -139.1,-11.7 -1711.43,-162.6 -2841.08,-1074.3 -12.21,-25.7 -25.27,-50.7 -38.92,-75.7 0,0 130.87,-104.2 311.18,-297.3 860.86,809.3 2400.02,1136.7 2672.52,1189.5 l 53.5,-132.5 c -1227.6,-30.9 -2676.57,-1111.1 -2676.57,-1111.1 50.05,-55.2 102.49,-116.4 156.85,-183.6 0,0 726.04,703.5 1380.62,703.5 0,0 -589.09,-110.1 -1307.35,-796.9 309.26,-405.5 642.83,-991.6 736.82,-1709.2 187.02,-1430.6 1655.13,-1103.3 2122.73,-635.5 0,0 -1339.3,85.1 -697,1282.7 143.2,-38.9 263.3,-58.5 360.4,-58.5 111.5,0 193.1,25.5 245.9,76.5 95,91.8 63.6,233 36.4,309 -4.8,13.4 -1.7,28.4 8.3,39.3 l 60.7,66.2 c 36.9,40.1 43,100.9 15,147.8 -7.5,12.2 -7.6,27.5 -0.5,39.9 l 32.8,57.5 c 17.6,30.7 21.2,67.4 10,100.8 l -16.4,49.2 c -4.6,14 -1.2,29.4 9,40 l 114,118.4"
         style="fill:#464648;fill-opacity:1;fill-rule:nonzero;stroke:none"
         transform="matrix(0.13333333,0,0,-0.13333333,0,2668)" />
      <path
         id="path12"
         d="m 9792.66,9571.9 c 0,0 -6.02,4.7 -16.85,15 11.12,-13.2 16.85,-15 16.85,-15"
         style="fill:#464648;fill-opacity:1;fill-rule:nonzero;stroke:none"
         transform="matrix(0.13333333,0,0,-0.13333333,0,2668)" />
      <path
         id="path13"
         d="m 8624.93,12338.3 c 119.5,-145 255.16,-388.5 380.21,-648.4 31.68,-66.4 235.98,-505.5 325.15,-956.7 h 0.04 c 149.72,-754 404.77,-1051.8 471.56,-1118.9 -37.97,47.6 -139.38,238.8 -279.24,993.3 -179.49,968.3 -897.72,1730.7 -897.72,1730.7"
         style="fill:#464648;fill-opacity:1;fill-rule:nonzero;stroke:none"
         transform="matrix(0.13333333,0,0,-0.13333333,0,2668)" />
      <path
         id="path14"
         d="m 8918.06,9614.3 0.7,0.2 c -0.14,0.2 -0.14,0.3 -0.14,0.3 0,0 -0.14,-0.1 -0.56,-0.5"
         style="fill:#464648;fill-opacity:1;fill-rule:nonzero;stroke:none"
         transform="matrix(0.13333333,0,0,-0.13333333,0,2668)" />
      <path
         id="path15"
         d="m 10052.2,12481.5 c 0,0 -149.56,-222.1 181.2,-403.3 l -181.2,403.3"
         style="fill:#464648;fill-opacity:1;fill-rule:nonzero;stroke:none"
         transform="matrix(0.13333333,0,0,-0.13333333,0,2668)" />
      <path
         id="path16"
         d="m 10202.7,10882 c 0,0 -369.59,120.9 0,547.7 -4.1,-6.7 -193,-329.8 0,-547.7 z m 426.6,285.7 c -16.7,64 -46,124.4 -85.2,177.5 -126.3,171.9 -243.3,443.9 -245.7,449.4 -0.1,0 -0.1,-0.2 -0.1,-0.2 -2.4,-5.3 -45.7,-101 -104.6,-210.7 0,-0.2 -84,-136.8 -135.1,-220.8 -0.5,-0.7 -1.1,-1.5 -1.6,-2.1 0,0 -17.5,-27 -35.7,-59.6 -0.1,-0.3 -0.3,-0.8 -0.5,-1 -0.1,-0.1 -0.1,-0.3 -0.2,-0.4 0,0 0,0 0,-0.1 -10.9,-19.6 -22.14,-41.4 -29.81,-60.3 0,0 0,-0.1 -0.12,-0.3 -1.67,-4.6 -3.47,-9.4 -5.15,-14.3 -0.11,-0.2 -0.23,-0.4 -0.23,-0.6 -0.36,-1.1 -0.96,-2.3 -1.2,-3.3 -0.12,-0.3 -0.24,-0.7 -0.36,-1 -17.24,-48.8 -27.66,-92.4 -27.66,-126.5 0,-196.1 153.23,-355 342.33,-355 189,0 342.4,158.9 342.4,355 0,21.5 -4.1,46.5 -11.5,74.3"
         style="fill:#464648;fill-opacity:1;fill-rule:nonzero;stroke:none"
         transform="matrix(0.13333333,0,0,-0.13333333,0,2668)" />
      <path
         id="path17"
         d="m 9193.92,10466.8 c 36.43,-169.2 81.86,-318.8 134.77,-450.7 -85.7,244.3 -131.63,437.3 -134.77,450.7"
         style="fill:#464648;fill-opacity:1;fill-rule:nonzero;stroke:none"
         transform="matrix(0.13333333,0,0,-0.13333333,0,2668)" />
      <path
         id="path18"
         d="m 9501.1,9513.6 c 0,0.1 -0.12,0.1 -0.12,0.2 -0.24,0.3 -0.48,0.6 -0.6,0.7 -0.12,0.2 -0.12,0.2 -0.24,0.3 -0.24,0.5 -0.6,0.8 -0.96,1.4 -0.72,0.9 -1.43,1.7 -2.15,2.5 -99.38,123.8 -303.76,333.2 -561.9,353.5 -161.51,12.7 -318.6,-49.5 -466.94,-184.8 -149.31,-135.9 -302.32,-243.5 -454.98,-319.6 -5.86,-3 -11.61,-5.8 -17.36,-8.5 l -5.98,-2.9 c -143.44,-68.6 -261.85,-97.2 -343.75,-108.7 64.06,62.5 121.05,127.5 169.9,194 5.87,7.7 11.25,15.4 16.4,22.7 213.36,301.9 239.7,596.1 224.38,789.6 -11.74,147.3 -48.26,259.2 -70.05,315 320.76,225.7 266.04,634.9 263.53,652.9 -3.11,21.4 -20.23,38.2 -41.79,40.7 -21.67,2.5 -42.14,-9.7 -50.16,-29.9 -210.13,-531.2 -658.76,-528 -677.79,-527.8 -13.29,0.4 -26.22,-4.9 -35.56,-14.6 -9.34,-9.6 -14.25,-22.6 -13.41,-35.9 6.7,-121.3 -236.11,-236 -321.6,-266.7 -18.2,-6.5 -30.77,-23.2 -31.73,-42.5 -1.43,-25.9 -3.83,-51.2 -7.18,-75.3 -13.53,-79.6 -45.74,-137.5 -95.78,-172.4 -30.77,-21.5 -65.02,-32 -95.43,-36.6 121.17,181 95.31,314.4 93.87,320.7 -4.55,21.9 -23.71,37.7 -46.1,38.1 -22.51,0.1 -42.02,-14.8 -47.29,-36.6 -38.79,-160.5 -156.13,-275.7 -247.6,-344 -12.33,-9.2 -29.22,-7.1 -38.55,4.9 l -284.24,364.9 c -5.63,7.1 -7.31,16.5 -4.55,25.2 l 71.12,226.3 c 0.48,1.3 0.96,2.5 1.55,3.7 l 582.49,1197.6 c 1.79,3.9 3.11,7.9 3.95,12 l 66.93,353.1 588.35,459 c 13.53,10.6 20.36,27.6 17.96,44.5 -2.39,16.8 -13.53,31.3 -29.45,37.7 -230.6,93.7 -368.41,272.1 -409.6,530.5 -13.05,81.3 -14.01,158.4 -10.65,221.1 48.61,-70.2 127.03,-154.7 251.43,-229.3 235.63,-141.4 315.13,-520.9 315.97,-524.6 4.55,-22.4 24.18,-38.4 46.93,-38.4 h 49.81 c 13.17,0 25.74,5.3 34.72,14.9 9.1,9.5 13.77,22.3 13.05,35.5 -43.34,816.2 281.01,1393.3 417.14,1597 128.83,-546.5 71.72,-964.1 -2.16,-1223.6 -84.76,-297.7 -209.16,-456.9 -210.36,-458.4 -16.29,-20.5 -13.17,-50.2 7.06,-66.9 7.43,-6.1 747.12,-628.8 1021.18,-2047.9 4.43,-22.3 8.98,-44.2 13.65,-65.9 0.12,-1.1 0.36,-2 0.6,-3 0,-0.1 0,-0.2 0.12,-0.3 35.92,-166.6 81.89,-320.4 136.73,-457.3 61.66,-176 149.42,-392.9 260.89,-586.8 -23.71,24.9 -38.43,42.5 -43.7,49 z m 326.26,-280.1 c -75.79,80.9 -144.63,181.7 -206.05,290 -104.89,184.9 -188.34,392 -247.48,560.6 -0.12,0.6 -0.48,1.3 -0.72,1.9 -52.92,132.2 -97.46,281.1 -132.31,442.9 l -0.12,0.1 c -4.66,22.2 -9.33,44.4 -13.76,67.2 -146.43,758 -424.09,1288.4 -631.34,1599.9 -172.89,260.1 -324.59,413.5 -389.6,473.9 43.7,65.5 132.42,216.6 199.47,449.4 82.73,287.3 146.19,759.9 -20.95,1379.1 -4.67,17.3 -18.56,30.6 -36.04,34.4 -17.48,3.7 -35.68,-2.5 -47.06,-16.3 -5.74,-6.9 -141.4,-172.3 -271.18,-470.8 -106.32,-244.7 -226.05,-624.1 -229.89,-1096.8 -51,137 -147.14,324.7 -311.53,423.5 -234.67,140.7 -281.61,319.1 -281.97,320.5 -2.51,10.8 -8.74,20.1 -16.88,26.6 -8.26,6.4 -18.67,10.3 -29.69,10.3 -22.27,0 -41.55,-15.3 -46.58,-37 -1.79,-7.7 -43.94,-190.4 -10.05,-406.4 41.06,-262.9 177.2,-459.6 395.34,-573.4 l -540.7,-421.9 c -9.21,-7.2 -15.44,-17.4 -17.59,-28.9 l -69.09,-364.4 -579.61,-1191.8 c -2.64,-5.4 -4.91,-11 -6.71,-16.9 l -71.24,-226.4 c -12.21,-38.7 -4.55,-80.8 20.36,-112.8 l 284.24,-364.9 c 40.94,-52.6 117.81,-62.8 171.45,-22.8 15.2,11.5 31.25,24.1 47.41,37.9 0.72,-2.3 1.56,-4.6 2.52,-6.7 6.58,-14.5 19.99,-24.6 35.2,-27.2 13.41,-2.5 144.03,-24.1 253.94,52 72.56,50.1 118.42,129.6 136.38,236.3 0.12,0.5 0.24,1 0.24,1.3 2.39,17.1 4.43,34.9 5.86,52.8 87.52,35.2 319.2,142.4 352.01,302.5 52.8,4.6 146.19,19.6 252.27,67 112.31,50.2 255.86,145.2 372.12,324.7 -22.51,-124 -84.65,-276.3 -246.04,-375 -21.08,-12.9 -28.86,-39.7 -17.96,-62 0.59,-1.2 62.97,-130.4 77.58,-323.5 19.52,-257.2 -50.29,-500.4 -207.61,-723.1 -4.55,-6.4 -9.22,-12.9 -14.61,-20.1 -69.08,-94 -154.69,-184.4 -254.78,-268.7 -14.49,-12.3 -20.48,-32 -15.09,-50.2 5.51,-18.2 21.19,-31.5 39.99,-33.9 2.16,-0.3 16.64,-1.9 42.15,-1.9 75.54,0 248.08,14.7 479.87,125.6 l 5.99,2.9 c 6.1,2.9 12.33,5.9 18.56,9 160.56,80.1 320.87,192.8 476.52,334.7 128.11,116.7 260.89,170.5 395.11,159.9 222.82,-17.4 406.12,-207.3 495.56,-318.9 0.36,-0.5 0.72,-0.9 1.08,-1.3 0.6,-0.9 1.2,-1.7 1.68,-2.3 20.95,-26 135.65,-162.6 340.63,-293.6 6.82,-4.3 14.25,-6.7 21.67,-7.3 15.2,-1.4 30.65,4.5 40.95,17 15.44,18.6 14.6,45.7 -1.92,63.3"
         style="fill:#464648;fill-opacity:1;fill-rule:nonzero;stroke:none"
         transform="matrix(0.13333333,0,0,-0.13333333,0,2668)" />
      <path
         id="path19"
         d="m 13424.2,11840.1 c -102.6,-1040.6 -680.8,-1976.4 -1528.5,-2540.7 -103.8,-64.1 -204.5,-119 -302.1,-166 -398.7,-191.9 -744.2,-248.8 -1034.2,-232.2 -327.6,18.5 -584.29,130.7 -767,247.4 -1.44,1.6 -2.87,3 -4.07,4.6 -204.62,220.7 -359.31,576.9 -459.64,862.9 81.65,-203.7 181.15,-365.4 292.62,-492.6 280.28,-320.5 635.99,-421.4 972.89,-421.4 254,0 497.3,57.3 689.4,121.3 0,0 301.9,107 577.7,298.7 0.5,0.3 1,0.7 1.5,1.1 0.2,0 0.4,0.1 0.6,0.3 76.2,58.3 150.1,119.8 221.3,184 0,0 0,0 0.2,0.2 30.7,31.3 58,56.6 82.1,76.6 h 0.1 c 564.1,542.9 947.8,1271.9 1035,2079.8 128.3,1069.3 -294,2170.8 -1091.1,2893.4 -1200.1,1122.5 -3105.58,1183.9 -4355.56,106.9 -936.05,-784.8 -1368.64,-2044 -1194.31,-3227 l -116.14,-195.8 c -175.76,685.6 -128.35,1432.1 143.2,2087.5 677.79,1683.9 2621.96,2544.5 4340.31,2029.1 1628.2,-477.8 2664.6,-2031 2495.7,-3718.1"
         style="fill:#464648;fill-opacity:1;fill-rule:nonzero;stroke:none"
         transform="matrix(0.13333333,0,0,-0.13333333,0,2668)" />
    </g>
  </g>
</svg>
